<svg width="20" height="21" viewBox="0 0 20 21" fill="none" xmlns="http://www.w3.org/2000/svg">
<mask id="path-1-inside-1_1_238" fill="white">
<path d="M20 10.5325C20 8.55466 19.4135 6.62126 18.3147 4.97677C17.2159 3.33228 15.6541 2.05056 13.8268 1.29368C11.9996 0.536803 9.98891 0.33877 8.0491 0.724622C6.10929 1.11047 4.32746 2.06288 2.92894 3.46141C1.53041 4.85993 0.578004 6.64176 0.192152 8.58157C-0.1937 10.5214 0.00433268 12.532 0.761209 14.3593C1.51809 16.1866 2.79981 17.7484 4.4443 18.8472C6.08879 19.946 8.02219 20.5325 10 20.5325C12.6505 20.5272 15.191 19.4719 17.0652 17.5977C18.9394 15.7235 19.9947 13.183 20 10.5325ZM10.4 19.7225V12.5325H13.2C13.3061 12.5325 13.4078 12.4903 13.4828 12.4153C13.5579 12.3403 13.6 12.2386 13.6 12.1325C13.6 12.0264 13.5579 11.9246 13.4828 11.8496C13.4078 11.7746 13.3061 11.7325 13.2 11.7325H10.4V8.93247C10.4026 8.40285 10.6142 7.89567 10.9887 7.52116C11.3632 7.14666 11.8704 6.9351 12.4 6.93247H14C14.1061 6.93247 14.2078 6.89033 14.2828 6.81532C14.3579 6.7403 14.4 6.63856 14.4 6.53247C14.4 6.42639 14.3579 6.32465 14.2828 6.24963C14.2078 6.17462 14.1061 6.13247 14 6.13247H12.4C11.6582 6.13511 10.9475 6.43095 10.423 6.95549C9.89848 7.48002 9.60264 8.19068 9.6 8.93247V11.7325H6.8C6.69392 11.7325 6.59217 11.7746 6.51716 11.8496C6.44215 11.9246 6.4 12.0264 6.4 12.1325C6.4 12.2386 6.44215 12.3403 6.51716 12.4153C6.59217 12.4903 6.69392 12.5325 6.8 12.5325H9.6V19.7225C7.19693 19.6179 4.93038 18.5763 3.28592 16.8209C1.64146 15.0655 0.749877 12.7359 0.802179 10.3311C0.854482 7.92635 1.84651 5.63769 3.56574 3.95544C5.28497 2.2732 7.59466 1.33117 10 1.33117C12.4053 1.33117 14.715 2.2732 16.4343 3.95544C18.1535 5.63769 19.1455 7.92635 19.1978 10.3311C19.2501 12.7359 18.3585 15.0655 16.7141 16.8209C15.0696 18.5763 12.8031 19.6179 10.4 19.7225Z"/>
</mask>
<path d="M20 10.5325C20 8.55466 19.4135 6.62126 18.3147 4.97677C17.2159 3.33228 15.6541 2.05056 13.8268 1.29368C11.9996 0.536803 9.98891 0.33877 8.0491 0.724622C6.10929 1.11047 4.32746 2.06288 2.92894 3.46141C1.53041 4.85993 0.578004 6.64176 0.192152 8.58157C-0.1937 10.5214 0.00433268 12.532 0.761209 14.3593C1.51809 16.1866 2.79981 17.7484 4.4443 18.8472C6.08879 19.946 8.02219 20.5325 10 20.5325C12.6505 20.5272 15.191 19.4719 17.0652 17.5977C18.9394 15.7235 19.9947 13.183 20 10.5325ZM10.4 19.7225V12.5325H13.2C13.3061 12.5325 13.4078 12.4903 13.4828 12.4153C13.5579 12.3403 13.6 12.2386 13.6 12.1325C13.6 12.0264 13.5579 11.9246 13.4828 11.8496C13.4078 11.7746 13.3061 11.7325 13.2 11.7325H10.4V8.93247C10.4026 8.40285 10.6142 7.89567 10.9887 7.52116C11.3632 7.14666 11.8704 6.9351 12.4 6.93247H14C14.1061 6.93247 14.2078 6.89033 14.2828 6.81532C14.3579 6.7403 14.4 6.63856 14.4 6.53247C14.4 6.42639 14.3579 6.32465 14.2828 6.24963C14.2078 6.17462 14.1061 6.13247 14 6.13247H12.4C11.6582 6.13511 10.9475 6.43095 10.423 6.95549C9.89848 7.48002 9.60264 8.19068 9.6 8.93247V11.7325H6.8C6.69392 11.7325 6.59217 11.7746 6.51716 11.8496C6.44215 11.9246 6.4 12.0264 6.4 12.1325C6.4 12.2386 6.44215 12.3403 6.51716 12.4153C6.59217 12.4903 6.69392 12.5325 6.8 12.5325H9.6V19.7225C7.19693 19.6179 4.93038 18.5763 3.28592 16.8209C1.64146 15.0655 0.749877 12.7359 0.802179 10.3311C0.854482 7.92635 1.84651 5.63769 3.56574 3.95544C5.28497 2.2732 7.59466 1.33117 10 1.33117C12.4053 1.33117 14.715 2.2732 16.4343 3.95544C18.1535 5.63769 19.1455 7.92635 19.1978 10.3311C19.2501 12.7359 18.3585 15.0655 16.7141 16.8209C15.0696 18.5763 12.8031 19.6179 10.4 19.7225Z" fill="white"/>
<path d="M20 10.5325C20 8.55466 19.4135 6.62126 18.3147 4.97677C17.2159 3.33228 15.6541 2.05056 13.8268 1.29368C11.9996 0.536803 9.98891 0.33877 8.0491 0.724622C6.10929 1.11047 4.32746 2.06288 2.92894 3.46141C1.53041 4.85993 0.578004 6.64176 0.192152 8.58157C-0.1937 10.5214 0.00433268 12.532 0.761209 14.3593C1.51809 16.1866 2.79981 17.7484 4.4443 18.8472C6.08879 19.946 8.02219 20.5325 10 20.5325C12.6505 20.5272 15.191 19.4719 17.0652 17.5977C18.9394 15.7235 19.9947 13.183 20 10.5325ZM10.4 19.7225V12.5325H13.2C13.3061 12.5325 13.4078 12.4903 13.4828 12.4153C13.5579 12.3403 13.6 12.2386 13.6 12.1325C13.6 12.0264 13.5579 11.9246 13.4828 11.8496C13.4078 11.7746 13.3061 11.7325 13.2 11.7325H10.4V8.93247C10.4026 8.40285 10.6142 7.89567 10.9887 7.52116C11.3632 7.14666 11.8704 6.9351 12.4 6.93247H14C14.1061 6.93247 14.2078 6.89033 14.2828 6.81532C14.3579 6.7403 14.4 6.63856 14.4 6.53247C14.4 6.42639 14.3579 6.32465 14.2828 6.24963C14.2078 6.17462 14.1061 6.13247 14 6.13247H12.4C11.6582 6.13511 10.9475 6.43095 10.423 6.95549C9.89848 7.48002 9.60264 8.19068 9.6 8.93247V11.7325H6.8C6.69392 11.7325 6.59217 11.7746 6.51716 11.8496C6.44215 11.9246 6.4 12.0264 6.4 12.1325C6.4 12.2386 6.44215 12.3403 6.51716 12.4153C6.59217 12.4903 6.69392 12.5325 6.8 12.5325H9.6V19.7225C7.19693 19.6179 4.93038 18.5763 3.28592 16.8209C1.64146 15.0655 0.749877 12.7359 0.802179 10.3311C0.854482 7.92635 1.84651 5.63769 3.56574 3.95544C5.28497 2.2732 7.59466 1.33117 10 1.33117C12.4053 1.33117 14.715 2.2732 16.4343 3.95544C18.1535 5.63769 19.1455 7.92635 19.1978 10.3311C19.2501 12.7359 18.3585 15.0655 16.7141 16.8209C15.0696 18.5763 12.8031 19.6179 10.4 19.7225Z" fill="white"/>
<path d="M10 20.5325V21.5325L10.002 21.5325L10 20.5325ZM10.4 12.5325V11.5325H9.4V12.5325H10.4ZM10.4 11.7325H9.4V12.7325H10.4V11.7325ZM10.4 8.93247L9.4 8.92751V8.93247H10.4ZM12.4 6.93247V5.93246L12.395 5.93249L12.4 6.93247ZM12.4 6.13247V5.13247L12.3965 5.13248L12.4 6.13247ZM9.6 8.93247L8.6 8.92892V8.93247H9.6ZM9.6 11.7325V12.7325H10.6V11.7325H9.6ZM9.6 12.5325H10.6V11.5325H9.6V12.5325ZM9.6 19.7225L9.55652 20.7215L10.6 20.7669V19.7225H9.6ZM21 10.5325C21 8.35688 20.3549 6.23014 19.1462 4.4212L17.4832 5.53234C18.4722 7.01238 19 8.75244 19 10.5325H21ZM19.1462 4.4212C17.9375 2.61226 16.2195 1.20236 14.2095 0.3698L13.4442 2.21756C15.0887 2.89875 16.4943 4.0523 17.4832 5.53234L19.1462 4.4212ZM14.2095 0.3698C12.1995 -0.462764 9.9878 -0.6806 7.85401 -0.256163L8.24419 1.70541C9.99002 1.35814 11.7996 1.53637 13.4442 2.21756L14.2095 0.3698ZM7.85401 -0.256163C5.72022 0.168274 3.76021 1.21592 2.22183 2.7543L3.63604 4.16851C4.89472 2.90984 6.49836 2.05267 8.24419 1.70541L7.85401 -0.256163ZM2.22183 2.7543C0.683452 4.29268 -0.364196 6.25269 -0.788634 8.38648L1.17294 8.77666C1.5202 7.03083 2.37737 5.42719 3.63604 4.16851L2.22183 2.7543ZM-0.788634 8.38648C-1.21307 10.5203 -0.995234 12.732 -0.162671 14.742L1.68509 13.9766C1.0039 12.3321 0.82567 10.5225 1.17294 8.77666L-0.788634 8.38648ZM-0.162671 14.742C0.669893 16.752 2.07979 18.4699 3.88873 19.6786L4.99987 18.0157C3.51983 17.0268 2.36628 15.6212 1.68509 13.9766L-0.162671 14.742ZM3.88873 19.6786C5.69767 20.8873 7.82441 21.5325 10 21.5325V19.5325C8.21997 19.5325 6.47991 19.0046 4.99987 18.0157L3.88873 19.6786ZM10.002 21.5325C12.9171 21.5267 15.7111 20.3661 17.7723 18.3048L16.3581 16.8906C14.671 18.5778 12.384 19.5277 9.99801 19.5325L10.002 21.5325ZM17.7723 18.3048C19.8336 16.2435 20.9942 13.4495 21 10.5345L19 10.5305C18.9952 12.9165 18.0453 15.2034 16.3581 16.8906L17.7723 18.3048ZM11.4 19.7225V12.5325H9.4V19.7225H11.4ZM10.4 13.5325H13.2V11.5325H10.4V13.5325ZM13.2 13.5325C13.5713 13.5325 13.9274 13.385 14.19 13.1224L12.7757 11.7082C12.8883 11.5957 13.0409 11.5325 13.2 11.5325V13.5325ZM14.19 13.1224C14.4525 12.8599 14.6 12.5038 14.6 12.1325H12.6C12.6 11.9733 12.6632 11.8207 12.7757 11.7082L14.19 13.1224ZM14.6 12.1325C14.6 11.7612 14.4525 11.4051 14.19 11.1425L12.7757 12.5567C12.6632 12.4442 12.6 12.2916 12.6 12.1325H14.6ZM14.19 11.1425C13.9274 10.88 13.5713 10.7325 13.2 10.7325V12.7325C13.0409 12.7325 12.8883 12.6693 12.7757 12.5567L14.19 11.1425ZM13.2 10.7325H10.4V12.7325H13.2V10.7325ZM11.4 11.7325V8.93247H9.4V11.7325H11.4ZM11.4 8.93744C11.4013 8.67131 11.5076 8.41646 11.6958 8.22827L10.2816 6.81406C9.72076 7.37488 9.40395 8.13439 9.40001 8.92751L11.4 8.93744ZM11.6958 8.22827C11.884 8.04009 12.1388 7.93378 12.405 7.93246L12.395 5.93249C11.6019 5.93642 10.8424 6.25323 10.2816 6.81406L11.6958 8.22827ZM12.4 7.93247H14V5.93247H12.4V7.93247ZM14 7.93247C14.3713 7.93247 14.7274 7.78498 14.99 7.52242L13.5757 6.10821C13.6883 5.99569 13.8409 5.93247 14 5.93247V7.93247ZM14.99 7.52242C15.2525 7.25987 15.4 6.90377 15.4 6.53247H13.4C13.4 6.37335 13.4632 6.22073 13.5757 6.10821L14.99 7.52242ZM15.4 6.53247C15.4 6.16117 15.2525 5.80508 14.99 5.54252L13.5757 6.95674C13.4632 6.84421 13.4 6.6916 13.4 6.53247H15.4ZM14.99 5.54252C14.7274 5.27997 14.3713 5.13247 14 5.13247V7.13247C13.8409 7.13247 13.6883 7.06926 13.5757 6.95674L14.99 5.54252ZM14 5.13247H12.4V7.13247H14V5.13247ZM12.3965 5.13248C11.3907 5.13605 10.4271 5.53718 9.71591 6.24838L11.1301 7.66259C11.468 7.32473 11.9257 7.13417 12.4036 7.13247L12.3965 5.13248ZM9.71591 6.24838C9.00471 6.95958 8.60358 7.92314 8.60001 8.92892L10.6 8.93603C10.6017 8.45821 10.7923 8.00046 11.1301 7.66259L9.71591 6.24838ZM8.6 8.93247V11.7325H10.6V8.93247H8.6ZM9.6 10.7325H6.8V12.7325H9.6V10.7325ZM6.8 10.7325C6.4287 10.7325 6.07261 10.88 5.81005 11.1425L7.22427 12.5567C7.11174 12.6693 6.95913 12.7325 6.8 12.7325V10.7325ZM5.81005 11.1425C5.5475 11.4051 5.4 11.7612 5.4 12.1325H7.4C7.4 12.2916 7.33679 12.4442 7.22427 12.5567L5.81005 11.1425ZM5.4 12.1325C5.4 12.5038 5.5475 12.8599 5.81005 13.1224L7.22427 11.7082C7.33679 11.8207 7.4 11.9733 7.4 12.1325H5.4ZM5.81005 13.1224C6.07261 13.385 6.4287 13.5325 6.8 13.5325V11.5325C6.95913 11.5325 7.11174 11.5957 7.22427 11.7082L5.81005 13.1224ZM6.8 13.5325H9.6V11.5325H6.8V13.5325ZM8.6 12.5325V19.7225H10.6V12.5325H8.6ZM9.64348 18.7234C7.50161 18.6302 5.48143 17.7019 4.01571 16.1373L2.55613 17.5046C4.37934 19.4508 6.89225 20.6056 9.55652 20.7215L9.64348 18.7234ZM4.01571 16.1373C2.55 14.5727 1.75533 12.4963 1.80194 10.3529L-0.197584 10.3094C-0.255572 12.9755 0.732921 15.5584 2.55613 17.5046L4.01571 16.1373ZM1.80194 10.3529C1.84856 8.20948 2.73276 6.16959 4.26511 4.6702L2.86636 3.24069C0.960259 5.10579 -0.139597 7.64321 -0.197584 10.3094L1.80194 10.3529ZM4.26511 4.6702C5.79747 3.17081 7.85611 2.33117 10 2.33117V0.331175C7.33321 0.331175 4.77246 1.3756 2.86636 3.24069L4.26511 4.6702ZM10 2.33117C12.1439 2.33117 14.2025 3.17081 15.7349 4.6702L17.1336 3.24069C15.2275 1.3756 12.6668 0.331175 10 0.331175V2.33117ZM15.7349 4.6702C17.2672 6.16959 18.1514 8.20948 18.1981 10.3529L20.1976 10.3094C20.1396 7.64322 19.0397 5.10579 17.1336 3.24069L15.7349 4.6702ZM18.1981 10.3529C18.2447 12.4963 17.45 14.5727 15.9843 16.1373L17.4439 17.5046C19.2671 15.5584 20.2556 12.9755 20.1976 10.3094L18.1981 10.3529ZM15.9843 16.1373C14.5186 17.7019 12.4984 18.6302 10.3565 18.7234L10.4435 20.7215C13.1078 20.6056 15.6207 19.4508 17.4439 17.5046L15.9843 16.1373Z" fill="white" mask="url(#path-1-inside-1_1_238)"/>
</svg>
