<svg width="22" height="21" viewBox="0 0 22 21" fill="none" xmlns="http://www.w3.org/2000/svg">
<path d="M21.5562 0.842759C21.382 0.69118 21.1701 0.590299 20.9432 0.550961C20.7164 0.511624 20.4832 0.535318 20.2687 0.619496L0.798217 8.32738C0.545184 8.4288 0.331345 8.60969 0.188423 8.84322C0.0455006 9.07675 -0.0188902 9.35048 0.00480348 9.62379C0.0284971 9.89709 0.139013 10.1554 0.319955 10.3605C0.500897 10.5655 0.742626 10.7063 1.00928 10.762L6.29638 11.8358V18.4061C6.29318 18.6592 6.36605 18.9074 6.50542 19.118C6.6448 19.3286 6.84416 19.4918 7.07731 19.5862C7.23513 19.6495 7.40345 19.6819 7.57331 19.6819C7.73816 19.6821 7.9014 19.6493 8.05358 19.5854C8.20575 19.5215 8.34381 19.4278 8.45977 19.3098L11.478 16.2692L15.9314 20.2135C16.1596 20.4216 16.4572 20.5355 16.7651 20.5324C16.8977 20.5321 17.0295 20.5105 17.1555 20.4686C17.363 20.4 17.5496 20.279 17.6974 20.1171C17.8452 19.9551 17.9493 19.7577 17.9998 19.5437L21.9677 2.08665C22.0197 1.86124 22.0087 1.62575 21.9361 1.40623C21.8635 1.1867 21.732 0.991686 21.5562 0.842759ZM0.840429 9.55001C0.827877 9.45786 0.847271 9.36417 0.895336 9.28476C0.943402 9.20534 1.01719 9.14507 1.10426 9.11411L18.9601 2.05476L6.62353 11.0278L1.17813 9.93274C1.08743 9.91625 1.00485 9.86957 0.943622 9.80017C0.882391 9.73077 0.846053 9.64268 0.840429 9.55001ZM7.85824 18.7038C7.8009 18.7638 7.72694 18.805 7.646 18.8221C7.56505 18.8392 7.48088 18.8313 7.40446 18.7995C7.32664 18.7678 7.25998 18.7134 7.21299 18.6433C7.16599 18.5733 7.1408 18.4907 7.14063 18.4061V12.4205L10.8448 15.7057L7.85824 18.7038ZM21.1446 1.90591L17.1766 19.3523C17.1608 19.4247 17.126 19.4914 17.0759 19.5456C17.0258 19.5999 16.9622 19.6396 16.8917 19.6606C16.8236 19.6853 16.75 19.6904 16.6792 19.6754C16.6084 19.6603 16.5431 19.6258 16.4907 19.5756L7.39391 11.5168L21.0813 1.55507C21.1158 1.60575 21.1393 1.66321 21.1502 1.72367C21.1611 1.78414 21.1592 1.84624 21.1446 1.90591Z" fill="white"/>
</svg>
