<svg width="22" height="21" viewBox="0 0 22 21" fill="none" xmlns="http://www.w3.org/2000/svg">
<path d="M11 5.94914C10.0482 5.94914 9.11773 6.21795 8.32632 6.72157C7.53491 7.22519 6.91808 7.94101 6.55383 8.7785C6.18958 9.616 6.09428 10.5376 6.27997 11.4266C6.46566 12.3157 6.92401 13.1324 7.59705 13.7734C8.27009 14.4144 9.12759 14.8509 10.0611 15.0277C10.9947 15.2046 11.9623 15.1138 12.8417 14.7669C13.721 14.42 14.4726 13.8326 15.0014 13.0788C15.5303 12.3251 15.8125 11.439 15.8125 10.5325C15.8125 9.31689 15.3055 8.15111 14.403 7.29156C13.5004 6.43202 12.2764 5.94914 11 5.94914ZM11 14.2825C10.2212 14.2825 9.45996 14.0625 8.81244 13.6505C8.16492 13.2384 7.66024 12.6528 7.36222 11.9675C7.0642 11.2823 6.98623 10.5283 7.13816 9.80088C7.29009 9.07345 7.6651 8.40527 8.21577 7.88082C8.76644 7.35637 9.46803 6.99922 10.2318 6.85453C10.9956 6.70983 11.7873 6.78409 12.5068 7.06792C13.2263 7.35175 13.8413 7.8324 14.2739 8.44908C14.7066 9.06577 14.9375 9.79079 14.9375 10.5325C14.9375 11.527 14.5227 12.4809 13.7842 13.1841C13.0458 13.8874 12.0443 14.2825 11 14.2825ZM15.8125 0.532471H6.1875C4.67908 0.532471 3.23244 1.10315 2.16583 2.11898C1.09922 3.1348 0.5 4.51255 0.5 5.94914V15.1158C0.5 15.8271 0.647111 16.5315 0.932935 17.1887C1.21876 17.8459 1.6377 18.443 2.16583 18.946C3.23244 19.9618 4.67908 20.5325 6.1875 20.5325H15.8125C16.5594 20.5325 17.299 20.3924 17.989 20.1202C18.6791 19.8479 19.306 19.4489 19.8342 18.946C20.3623 18.443 20.7812 17.8459 21.0671 17.1887C21.3529 16.5315 21.5 15.8271 21.5 15.1158V5.94914C21.5 5.23781 21.3529 4.53345 21.0671 3.87627C20.7812 3.21909 20.3623 2.62196 19.8342 2.11898C19.306 1.61599 18.6791 1.217 17.989 0.94479C17.299 0.672577 16.5594 0.532471 15.8125 0.532471ZM20.625 15.1158C20.625 16.3314 20.118 17.4972 19.2155 18.3567C18.3129 19.2163 17.0889 19.6991 15.8125 19.6991H6.1875C4.91115 19.6991 3.68707 19.2163 2.78455 18.3567C1.88203 17.4972 1.375 16.3314 1.375 15.1158V5.94914C1.375 4.73356 1.88203 3.56777 2.78455 2.70823C3.68707 1.84869 4.91115 1.3658 6.1875 1.3658H15.8125C17.0889 1.3658 18.3129 1.84869 19.2155 2.70823C20.118 3.56777 20.625 4.73356 20.625 5.94914V15.1158ZM17.5625 5.1158C17.5625 5.28062 17.5112 5.44174 17.415 5.57878C17.3189 5.71582 17.1822 5.82263 17.0223 5.8857C16.8625 5.94878 16.6865 5.96528 16.5168 5.93313C16.3471 5.90097 16.1912 5.8216 16.0688 5.70506C15.9464 5.58852 15.8631 5.44003 15.8293 5.27838C15.7956 5.11673 15.8129 4.94917 15.8791 4.7969C15.9453 4.64463 16.0575 4.51448 16.2014 4.42291C16.3453 4.33134 16.5144 4.28247 16.6875 4.28247C16.9196 4.28247 17.1421 4.37027 17.3062 4.52655C17.4703 4.68283 17.5625 4.89479 17.5625 5.1158Z" fill="white"/>
<path d="M11 5.94914C10.0482 5.94914 9.11773 6.21795 8.32632 6.72157C7.53491 7.22519 6.91808 7.94101 6.55383 8.7785C6.18958 9.616 6.09428 10.5376 6.27997 11.4266C6.46566 12.3157 6.92401 13.1324 7.59705 13.7734C8.27009 14.4144 9.12759 14.8509 10.0611 15.0277C10.9947 15.2046 11.9623 15.1138 12.8417 14.7669C13.721 14.42 14.4726 13.8326 15.0014 13.0788C15.5303 12.3251 15.8125 11.439 15.8125 10.5325C15.8125 9.31689 15.3055 8.15111 14.403 7.29156C13.5004 6.43202 12.2764 5.94914 11 5.94914ZM11 14.2825C10.2212 14.2825 9.45996 14.0625 8.81244 13.6505C8.16492 13.2384 7.66024 12.6528 7.36222 11.9675C7.0642 11.2823 6.98623 10.5283 7.13816 9.80088C7.29009 9.07345 7.6651 8.40527 8.21577 7.88082C8.76644 7.35637 9.46803 6.99922 10.2318 6.85453C10.9956 6.70983 11.7873 6.78409 12.5068 7.06792C13.2263 7.35175 13.8413 7.8324 14.2739 8.44908C14.7066 9.06577 14.9375 9.79079 14.9375 10.5325C14.9375 11.527 14.5227 12.4809 13.7842 13.1841C13.0458 13.8874 12.0443 14.2825 11 14.2825ZM15.8125 0.532471H6.1875C4.67908 0.532471 3.23244 1.10315 2.16583 2.11898C1.09922 3.1348 0.5 4.51255 0.5 5.94914V15.1158C0.5 15.8271 0.647111 16.5315 0.932935 17.1887C1.21876 17.8459 1.6377 18.443 2.16583 18.946C3.23244 19.9618 4.67908 20.5325 6.1875 20.5325H15.8125C16.5594 20.5325 17.299 20.3924 17.989 20.1202C18.6791 19.8479 19.306 19.4489 19.8342 18.946C20.3623 18.443 20.7812 17.8459 21.0671 17.1887C21.3529 16.5315 21.5 15.8271 21.5 15.1158V5.94914C21.5 5.23781 21.3529 4.53345 21.0671 3.87627C20.7812 3.21909 20.3623 2.62196 19.8342 2.11898C19.306 1.61599 18.6791 1.217 17.989 0.94479C17.299 0.672577 16.5594 0.532471 15.8125 0.532471ZM20.625 15.1158C20.625 16.3314 20.118 17.4972 19.2155 18.3567C18.3129 19.2163 17.0889 19.6991 15.8125 19.6991H6.1875C4.91115 19.6991 3.68707 19.2163 2.78455 18.3567C1.88203 17.4972 1.375 16.3314 1.375 15.1158V5.94914C1.375 4.73356 1.88203 3.56777 2.78455 2.70823C3.68707 1.84869 4.91115 1.3658 6.1875 1.3658H15.8125C17.0889 1.3658 18.3129 1.84869 19.2155 2.70823C20.118 3.56777 20.625 4.73356 20.625 5.94914V15.1158ZM17.5625 5.1158C17.5625 5.28062 17.5112 5.44174 17.415 5.57878C17.3189 5.71582 17.1822 5.82263 17.0223 5.8857C16.8625 5.94878 16.6865 5.96528 16.5168 5.93313C16.3471 5.90097 16.1912 5.8216 16.0688 5.70506C15.9464 5.58852 15.8631 5.44003 15.8293 5.27838C15.7956 5.11673 15.8129 4.94917 15.8791 4.7969C15.9453 4.64463 16.0575 4.51448 16.2014 4.42291C16.3453 4.33134 16.5144 4.28247 16.6875 4.28247C16.9196 4.28247 17.1421 4.37027 17.3062 4.52655C17.4703 4.68283 17.5625 4.89479 17.5625 5.1158Z" fill="white"/>
</svg>
